# File created by Blade
# Date/Time:  Wed Apr 08 16:19:59 2015
# Frame Rate: 120.000 fps
#------------------------------------------------------
:FULLY-SPECIFIED
:DEGREES
1586
root -19.015077 29.664610 0.950579 372.276889 -65.606410 -443.504549
Spine -67.231331 -21.329476 1.284317
Head -91.316299 -6.865179 9.440243
LeftShoulder -11.003340 -4.155003 32.832218
LeftArm 200.196123 -69.614016 -155.475151
LeftForeArm -18.833946 -0.000000 1.563966
LeftHand 14.672551 -0.000000 111.993499
LeftHandThumb1 -26.253704 0.000000 33.147579
RightShoulder -22.214318 46.237359 -57.071399
RightArm 24.145268 56.311381 -8.720575
RightForeArm 39.074074 -0.000000 -1.487230
RightHand 21.132247 -0.000000 -102.792841
RightHandThumb1 -24.326973 -0.000000 -32.862282
LeftUpLeg 18.316609 -6.456524 21.842802
LeftLeg 33.750072 -0.000000 -0.000000
LeftFoot 6.657944 -8.311890 -11.754464
LeftToeBase -40.329582 -0.000000 0.000000
RightUpLeg -90.793234 -42.991845 -7.700073
RightLeg 6.155343 -0.000000 -0.000000
RightFoot 43.377154 -17.092371 -1.644884
RightToeBase 31.167015 -0.000000 -0.000000
1587
root -19.010393 29.662861 0.930626 372.489262 -65.575105 -443.701693
Spine -67.237538 -21.378502 1.246655
Head -91.342319 -6.895870 9.619116
LeftShoulder -10.954372 -4.191776 32.819326
LeftArm 200.230428 -69.715101 -155.288766
LeftForeArm -18.985321 0.000000 1.300845
LeftHand 14.665508 -0.000000 111.967268
LeftHandThumb1 -26.253704 0.000000 33.147579
RightShoulder -22.188573 46.268107 -56.965452
RightArm 24.010961 56.124990 -8.948847
RightForeArm 39.123345 -0.000000 -1.472974
RightHand 21.139642 -0.000000 -102.771454
RightHandThumb1 -24.326973 -0.000000 -32.862282
LeftUpLeg 18.230328 -6.526940 21.924234
LeftLeg 33.811094 -0.000000 -0.000000
LeftFoot 6.659043 -8.278483 -11.815967
LeftToeBase -40.288741 -0.000000 0.000000
RightUpLeg -90.843739 -43.070948 -7.791942
RightLeg 6.254647 -0.000000 -0.000000
RightFoot 43.490587 -17.004706 -1.582154
RightToeBase 31.005272 -0.000000 -0.000000
1588
root -19.006599 29.661953 0.909655 372.738971 -65.531455 -443.927100
Spine -67.275774 -21.422746 1.245745
Head -91.375820 -6.870890 9.522702
LeftShoulder -10.845351 -4.160766 32.808840
LeftArm 200.589028 -69.859141 -155.471485
LeftForeArm -19.218145 -0.000000 1.053662
LeftHand 14.654731 -0.000000 111.944173
LeftHandThumb1 -26.253704 0.000000 33.147579
RightShoulder -22.117482 46.344414 -56.840383
RightArm 23.940990 55.923588 -9.198728
RightForeArm 39.170137 -0.000000 -1.543764
RightHand 21.164925 -0.000000 -102.694140
RightHandThumb1 -24.326973 -0.000000 -32.862282
LeftUpLeg 18.133365 -6.605390 22.025915
LeftLeg 33.865237 -0.000000 -0.000000
LeftFoot 6.659794 -8.252245 -11.884123
LeftToeBase -40.351160 -0.000000 0.000000
RightUpLeg -90.860374 -43.163323 -7.912600
RightLeg 6.280012 -0.000000 -0.000000
RightFoot 43.553859 -16.965779 -1.504545
RightToeBase 31.092558 -0.000000 -0.000000
1589
root -19.002651 29.662011 0.889813 372.986131 -65.487184 -444.150796
Spine -67.303226 -21.459163 1.213365
Head -91.402795 -6.901034 9.533323
LeftShoulder -10.793442 -4.187638 32.810952
LeftArm 200.435106 -69.895554 -155.182857
LeftForeArm -19.295609 -0.000000 0.878895
LeftHand 14.687398 -0.000000 111.978615
LeftHandThumb1 -26.253704 0.000000 33.147579
RightShoulder -22.087272 46.409788 -56.745552
RightArm 23.955997 55.888717 -9.284194
RightForeArm 39.023434 -0.000000 -1.496999
RightHand 21.161543 -0.000000 -102.618004
RightHandThumb1 -24.326973 -0.000000 -32.862282
LeftUpLeg 18.045978 -6.668058 22.128985
LeftLeg 33.902301 -0.000000 -0.000000
LeftFoot 6.658546 -8.194142 -11.902412
LeftToeBase -40.416813 -0.000000 0.000000
RightUpLeg -90.931459 -43.258831 -7.935098
RightLeg 6.242383 -0.000000 -0.000000
RightFoot 43.547053 -16.899302 -1.496037
RightToeBase 31.027058 -0.000000 -0.000000
1590
root -18.999238 29.664462 0.870152 373.228646 -65.440943 -444.380986
Spine -67.319470 -21.486664 1.176760
Head -91.422938 -6.950375 9.567624
LeftShoulder -10.753884 -4.167319 32.813016
LeftArm 200.199877 -69.833932 -154.848529
LeftForeArm -19.351358 -0.000000 0.736351
LeftHand 14.689192 -0.000000 112.003240
LeftHandThumb1 -26.253704 0.000000 33.147579
RightShoulder -22.149915 46.443604 -56.767878
RightArm 24.085008 56.082231 -9.053025
RightForeArm 38.632265 -0.000000 -1.268765
RightHand 21.107431 0.000000 -102.699727
RightHandThumb1 -24.326973 -0.000000 -32.862282
LeftUpLeg 17.989666 -6.744149 22.231168
LeftLeg 33.903127 -0.000000 -0.000000
LeftFoot 6.661414 -8.149018 -11.922763
LeftToeBase -40.463072 -0.000000 0.000000
RightUpLeg -90.952128 -43.362186 -8.007853
RightLeg 6.168176 -0.000000 -0.000000
RightFoot 43.472925 -16.924944 -1.523464
RightToeBase 30.996566 -0.000000 -0.000000
